<?xml version="1.0" encoding="UTF-8"?>
<svg id="_图层_1" data-name="图层_1" xmlns="http://www.w3.org/2000/svg" version="1.1" viewBox="0 0 312.27 323.29">
  <!-- Generator: Adobe Illustrator 29.0.1, SVG Export Plug-In . SVG Version: 2.1.0 Build 192)  -->
  <defs>
    <style>
      .st0 {
        fill: #0253fd;
      }
    </style>
  </defs>
  <path class="st0" d="M135.71,69.18c-66.5,6.77-102.36,84.61-67.92,141.25,43.65,71.78,158.66,52.64,172.73-31.46,10.88-65.02-39.88-116.4-104.82-109.79ZM155.39,236.72c-102.6,7.54-112.43-142.89-11.68-150.55,97.98-7.45,109.07,143.39,11.68,150.55Z"/>
  <path class="st0" d="M311.5,169.3c-2.21-6.92-12.99-30.14-16.87-36.32-4.03-6.43-5.32-8.17-10.94-1.71-4.33,4.98-20.6,31.63-23.01,37.73-1.55,3.92.5,7.84,4.69,8.23,2.53.23,7.53-1.68,12.55-3.26-.19,4.95-2.54,16.41-3.4,20-7.81,32.88-31.72,63.38-60.99,79.89-14.53,8.2-30.16,13.11-46.49,16.26-3.83-6.26-10.73-10.43-18.6-10.43s-14.59,4.07-18.45,10.2c-4.82-.87-11.4-2.29-13.07-2.7-29.3-7.14-57.11-25.79-74.75-50.15C-15.85,156.94,36.45,48.05,130.11,33.58c3.88,6.02,10.64,10.01,18.33,10.01s14.94-4.28,18.74-10.66c4.37.4,13.67,2.68,16.72,3.48,15.81,4.13,30.67,11.55,43.87,21.08,1.04.75,2.12,1.68,3.24,2.68-8.65,2.89-20.13,6.86-9.6,13.93,6.03,4.05,28.89,15.57,35.76,18.01,7.15,2.54,9.24,3.11,9.64-5.45.3-6.59-3.48-37.59-5.37-43.86-1.22-4.03-5.26-5.84-8.79-3.54-2.03,1.32-4.6,5.56-7.4,9.72-13-11.26-32.63-22.21-48.6-27.31-4.14-1.32-19.08-4-27.19-5.69-2.55-9.21-10.98-15.98-21.01-15.98s-18.57,6.85-21.06,16.15C33.78,29.57-27.42,132.05,12.32,220.94c20.58,46.02,59.7,74.95,108.59,85.26,1.82.38,4.15.58,6.42.76,2.42,9.4,10.95,16.34,21.11,16.34s18.77-7.02,21.14-16.49c5.76-1.22,14.38-2.02,19.51-3.41,52.75-14.29,94.51-59.77,104.26-113.56.83-4.6.72-11.16,1.4-15.77,8.63,3.12,20.69,7.58,16.73-4.76Z"/>
  <path class="st0" d="M148.44,122.63c-10.35,0-19.74,4.11-26.65,10.77-1.83,1.7-3.41,3.56-4.76,5.56-4.39,6.24-6.98,13.85-6.98,22.06,0,11.72,5.26,22.2,13.53,29.24,6.12,5.76,14.29,9.37,24.17,9.13.23,0,.46.02.69.02,8.31,0,15.99-2.65,22.27-7.13,4.7-3.16,8.25-7.17,10.74-11.67,3.41-5.74,5.38-12.43,5.38-19.59,0-21.2-17.19-38.39-38.39-38.39Z"/>
</svg>